<?xml version="1.0" encoding="utf-8"?>
<!-- Generator: Adobe Illustrator 15.1.0, SVG Export Plug-In . SVG Version: 6.00 Build 0)  -->
<!DOCTYPE svg PUBLIC "-//W3C//DTD SVG 1.1//EN" "http://www.w3.org/Graphics/SVG/1.1/DTD/svg11.dtd">
<svg version="1.1" id="Dessin" xmlns="http://www.w3.org/2000/svg" xmlns:xlink="http://www.w3.org/1999/xlink" x="0px" y="0px"
	 width="595.28px" height="841.89px" viewBox="0 0 595.28 841.89" enable-background="new 0 0 595.28 841.89" xml:space="preserve">
<path fill="#FFFFFF" stroke="#000000" stroke-miterlimit="10" d="M412.001,480.999c0,0,32.333-14.667,8.333-52.333
	c0,0,13.667-24,11.667-43l-17.669,11.67c0,0-30.358-137.909-33.638-149.881l-167.361,38.622l-3,107.925c0,0-12-11.669-24-8.003
	c0,0-9.333,32.333,17.667,39.333c0,0-3.587,36.097,21.747,45.427c0,0,0.585,21.576,40.252,27.243
	C265.999,498.003,369.67,507.328,412.001,480.999z"/>
<polygon fill="none" stroke="#000000" stroke-miterlimit="10" points="435.75,234.75 346,218.75 227,248.269 173.243,295.329 "/>
<polygon fill="none" stroke="#000000" stroke-miterlimit="10" points="227,225.5 334.25,198.75 341.939,219.757 230.279,247.455 "/>
<polygon fill="none" stroke="#000000" stroke-miterlimit="10" points="222.819,189.905 321.992,166.964 330.505,199.685 
	230.706,224.576 "/>
<path fill="none" stroke="#000000" stroke-miterlimit="10" d="M210.583,385c0,0,26.749-25.829,23.75-51.667
	c0,0,74.334,18.667,94.667-53c0,0,8.957,54.679,69.623,46.013"/>
<path fill="none" stroke="#000000" stroke-miterlimit="10" d="M222.818,370.003c0,0,4.516,78.831,94.516,70.164
	c0,0,90.666-24.164,65.233-97.052"/>
<path fill="none" stroke="#000000" stroke-miterlimit="10" d="M375.664,326.524c0,0,1.836,23.476,26.17,27.56"/>
<path fill="none" stroke="#000000" stroke-miterlimit="10" d="M252.75,391.66l105.783-14.18c0,0,7.547,33.02-43.871,43.465
	C314.662,420.945,271,431.667,252.75,391.66z"/>
<polygon fill="none" stroke="#000000" stroke-miterlimit="10" points="273.12,576.417 268.666,616 298.063,616.666 309.333,572.299 
	"/>
<polygon fill="none" stroke="#000000" stroke-miterlimit="10" points="266.333,615.833 266,654.666 241.5,670.667 290.167,671.666 
	291.179,654.333 302.093,616.666 "/>
<polygon fill="none" stroke="#000000" stroke-miterlimit="10" points="380.101,605.638 376.334,658.665 399,670.331 359,671.666 
	353.334,653.165 340.5,618.331 "/>
<ellipse fill="none" stroke="#000000" stroke-miterlimit="10" cx="252.75" cy="363.426" rx="6.75" ry="6.088"/>
<ellipse fill="none" stroke="#000000" stroke-miterlimit="10" cx="358.083" cy="352.926" rx="6.75" ry="6.088"/>
<path fill="none" stroke="#000000" stroke-miterlimit="10" d="M198.411,663.024c3.089,6.726,11.951,2.737,11.632-1.277
	c-0.382-4.808-45.099-270.496-45.099-270.496l-15.067,3.402C149.876,394.654,195.196,656.025,198.411,663.024z"/>
<polygon fill="none" stroke="#000000" stroke-miterlimit="10" points="142,371.857 162.158,367.609 168.095,390.54 145.806,395.573 
	"/>
<path fill="#FFFFFF" stroke="#000000" stroke-miterlimit="10" d="M110.274,369.397c1.643,1.827,51.86,12.455,75.926-18.107
	c0,0-14.21-78.418-15.518-81.961c-1.146-3.105-5.828-2.525-5.083,1.143c0.746,3.668,12.901,77.196,12.901,77.196
	s-8.508,8.219-24.333,11.833c0,0-16.394-83.402-16.699-85.933c-0.305-2.531-6.229-1.718-5.627,1
	c0.603,2.729,12.494,87.1,12.494,87.1s-14.469,5.446-26.333,0c0,0-12.066-68.157-13.353-76.706c-0.75-4.983-6.163-4.614-5.047,0.519
	C100.039,287.494,108.667,367.609,110.274,369.397z"/>
<polygon fill="#FFFFFF" stroke="#000000" stroke-miterlimit="10" points="365.983,565.856 373.427,607.333 347.392,615.833 
	327.834,570.195 "/>
<path fill="#FFFFFF" stroke="#000000" stroke-miterlimit="10" d="M390.332,509.5c-9.392-10.116-16.704-0.798-16.704-0.798
	l15.039-28.202L362.5,464.75l5.683,30.558L395.5,562.5l-142.167,16.167l15.667-68l-0.334-27.745L194.27,503.5
	c0,0,2.616-10.863-3.717-14.53L272,445.75L363.299,433L408,478.25L390.332,509.5c0,0,11.418,13.75-6.391,24.57"/>
<path fill="#FFFFFF" stroke="#000000" stroke-miterlimit="10" d="M296.25,443c0,0-3.167,21.666,20.5,20
	c0,0,22.916-3.75,15.218-25.213"/>
<polyline fill="#FFFFFF" stroke="#000000" stroke-miterlimit="10" points="276,445.709 279.45,510.514 291.179,508.5 291.179,508.5 
	286.875,444.251 "/>
<path fill="#FFFFFF" stroke="#000000" stroke-miterlimit="10" d="M354.666,505.834"/>
<line fill="#FFFFFF" stroke="#000000" stroke-miterlimit="10" x1="339.666" y1="436.61" x2="344.111" y2="500.905"/>
<polyline fill="#FFFFFF" stroke="#000000" stroke-miterlimit="10" points="349.93,435.043 354.235,499.4 344.834,500.798 "/>
<path fill="#FFFFFF" stroke="#000000" stroke-miterlimit="10" d="M197.017,499.968c0,9.417-8.46,17.046-18.9,17.046
	s-18.9-7.629-18.9-17.046c0-9.414,8.46-17.046,18.9-17.046S197.017,490.554,197.017,499.968z"/>
<line fill="#FFFFFF" stroke="#000000" stroke-miterlimit="10" x1="268.666" y1="512.116" x2="368.957" y2="497.213"/>
<ellipse fill="#FFFFFF" stroke="#000000" stroke-miterlimit="10" cx="286" cy="511.781" rx="6.75" ry="6.088"/>
<ellipse fill="#FFFFFF" stroke="#000000" stroke-miterlimit="10" cx="349.979" cy="504.056" rx="6.75" ry="6.088"/>
</svg>
